:SAMPLES-PER-SECOND 30
:FULLY-SPECIFIED
:DEGREES
187
root  48.4452 37.3433 -13.6033 14.0203 -33.5463 -0.654144
RightUpLeg  -20.5197 -9.52021 -13.4686
RightLeg  35.0997 -6.51026 -5.208
RightFoot  -15.1899 0.46915 17.257
RightToes  0.000482159 0.542163 -0.142577
Spine  41.0302 1.92633 -7.81727
Spine1  -2.82528 -1.79261 4.5924
HEad  -37.5905 -12.0048 16.1026
LeftShoulder1  9.836 -16.0604 -43.7495
LeftArm  -14.1589 16.0792 -24.1288
LeftForeArm  21.0876 -0.131126 -2.95657
LeftHand  -0.25398 0.0180481 5.50724
RightShoulder  6.90889 11.1362 40.9935
RightArm  -3.02445 -0.970558 31.0021
RightForeArm  1.14163 51.0931 13.8936
RightHand  -4.83804 12.4112 -31.2373
LeftUpLeg  -32.039 3.75689 3.32696
LeftLeg  40.8412 6.83374 6.67794
LeftFoot  -21.634 -0.653774 -8.68512
LeftToes  1.06246e-005 4.65855e-005 -8.18502e-006
188
root  48.7562 37.2981 -12.5154 13.1685 -34.7605 -0.53833
RightUpLeg  -23.1933 -6.58182 -14.8078
RightLeg  42.1163 -10.2795 -10.1564
RightFoot  -8.33837 -0.395476 15.2891
RightToes  0.000482159 0.542163 -0.142577
Spine  41.1989 1.84582 -7.69316
Spine1  -2.71707 -1.81873 4.40583
HEad  -38.9535 -15.0059 17.5952
LeftShoulder1  9.93872 -16.0572 -44.2387
LeftArm  -14.5436 13.4415 -24.1389
LeftForeArm  21.7889 -0.887852 -3.02949
LeftHand  -0.25398 0.0180481 5.50724
RightShoulder  6.85389 11.1029 40.7408
RightArm  -2.87274 -1.49744 30.3312
RightForeArm  -2.14971 46.8998 12.1439
RightHand  -4.72028 12.2326 -30.8143
LeftUpLeg  -29.7661 2.72218 1.81847
LeftLeg  41.2802 8.15059 7.98345
LeftFoot  -23.379 -0.72735 -8.21969
LeftToes  1.06246e-005 4.65855e-005 -8.18502e-006
189
root  49.0386 37.2562 -11.4261 12.2894 -36.372 -0.887939
RightUpLeg  -28.129 -4.42598 -14.5307
RightLeg  50.8917 -10.8444 -14.1605
RightFoot  0.125351 -0.793486 7.78714
RightToes  0.000482159 0.542163 -0.142577
Spine  41.61 1.69178 -7.37074
Spine1  -2.48452 -1.83817 4.07003
HEad  -40.8828 -18.1622 19.061
LeftShoulder1  9.99393 -16.0693 -44.4679
LeftArm  -15.0645 10.2769 -24.2212
LeftForeArm  23.6508 -2.58319 -3.14196
LeftHand  -0.25398 0.0180481 5.50724
RightShoulder  6.82713 11.1207 40.5141
RightArm  -2.08467 -1.56985 30.0418
RightForeArm  -4.86447 42.8889 10.7111
RightHand  -4.77357 12.602 -30.54
LeftUpLeg  -27.1333 2.44595 0.471949
LeftLeg  41.6824 9.61322 9.43924
LeftFoot  -24.6201 -0.710598 -7.36814
LeftToes  1.06246e-005 4.65855e-005 -8.18502e-006
190
root  49.2178 37.1831 -10.3298 11.4648 -37.7003 -1.4594
RightUpLeg  -33.3926 -5.21327 -12.0974
RightLeg  57.4641 -7.28891 -12.4987
RightFoot  3.3869 -0.396725 3.08767
RightToes  0.000482159 0.542163 -0.142577
Spine  42.4217 1.34263 -7.21282
Spine1  -2.66528 -2.21931 4.16741
HEad  -43.5801 -21.3836 20.803
LeftShoulder1  9.91288 -16.0107 -44.2283
LeftArm  -16.3709 7.48755 -24.5108
LeftForeArm  25.3633 -5.62087 -3.12059
LeftHand  -0.25398 0.0180481 5.50724
RightShoulder  6.87437 11.1519 40.7242
RightArm  -0.766938 -1.58022 29.6405
RightForeArm  -6.44877 39.8572 9.73722
RightHand  -4.91719 13.1244 -30.5711
LeftUpLeg  -24.3668 2.47623 -0.591221
LeftLeg  42.1433 10.8825 10.7559
LeftFoot  -26.1507 -0.736527 -6.86182
LeftToes  1.06246e-005 4.65855e-005 -8.18502e-006
191
root  49.2982 37.1248 -9.18144 11.0904 -38.5892 -2.18079
RightUpLeg  -38.1465 -9.2836 -6.95685
RightLeg  60.396 -4.44066 -8.99599
RightFoot  0.713191 -0.356526 3.50501
RightToes  0.000482159 0.542163 -0.142577
Spine  43.2785 0.826739 -7.17113
Spine1  -3.07721 -3.06575 5.3169
HEad  -47.4098 -24.0855 22.9156
LeftShoulder1  9.82333 -15.9402 -43.976
LeftArm  -18.5209 5.58954 -24.7024
LeftForeArm  27.0399 -11.1551 -2.9378
LeftHand  -0.25398 0.0180481 5.50724
RightShoulder  6.9438 11.1842 41.0723
RightArm  0.144628 -1.86433 29.3523
RightForeArm  -6.32506 38.2902 9.22049
RightHand  -4.86062 13.061 -30.3361
LeftUpLeg  -21.7037 3.08065 -1.40725
LeftLeg  42.0432 11.5175 11.2986
LeftFoot  -27.9752 -0.848494 -6.9471
LeftToes  1.06246e-005 4.65855e-005 -8.18502e-006
192
root  49.2865 37.0844 -7.97782 11.0937 -39.8484 -2.51953
RightUpLeg  -42.603 -14.6477 0.276776
RightLeg  58.5259 -4.88805 -8.93866
RightFoot  -3.33692 -0.370531 4.85875
RightToes  0.000482159 0.542163 -0.142577
Spine  43.6606 0.522413 -7.66851
Spine1  -3.17836 -3.95701 6.71905
HEad  -51.7965 -25.587 24.8102
LeftShoulder1  9.91031 -15.9999 -44.2417
LeftArm  -20.3661 4.7369 -24.2468
LeftForeArm  29.3711 -19.9838 -3.11538
LeftHand  -0.25398 0.0180481 5.50724
RightShoulder  6.97278 11.2069 41.1888
RightArm  -0.103508 -2.47189 29.5846
RightForeArm  -5.4047 38.0224 9.08485
RightHand  -4.61088 12.4949 -29.7265
LeftUpLeg  -19.2449 5.32688 -2.56466
LeftLeg  40.9536 11.4602 10.8472
LeftFoot  -29.2499 -0.852524 -6.52484
LeftToes  1.06246e-005 4.65855e-005 -8.18502e-006
193
root  49.2075 37.0617 -6.6792 11.3279 -42.3121 -2.5596
RightUpLeg  -46.3667 -18.8572 8.64532
RightLeg  51.3036 -7.60264 -10.3918
RightFoot  -6.30365 -0.260067 5.07758
RightToes  0.000482159 0.542163 -0.142577
Spine  43.5012 0.465617 -8.31677
Spine1  -3.12013 -4.43948 7.17986
HEad  -55.2514 -25.7703 25.5423
LeftShoulder1  10.1035 -16.1407 -44.8069
LeftArm  -22.821 4.92355 -23.0075
LeftForeArm  33.6519 -30.8335 -4.84673
LeftHand  -0.25398 0.0180481 5.50724
RightShoulder  6.98425 11.2211 41.2187
RightArm  -1.01722 -3.16364 30.2244
RightForeArm  -5.15649 38.3381 9.17053
RightHand  -4.38865 11.9757 -29.1737
LeftUpLeg  -16.7263 9.44302 -4.11984
LeftLeg  39.1214 11.2079 9.99204
LeftFoot  -29.807 -0.63897 -5.03522
LeftToes  1.06246e-005 4.65855e-005 -8.18502e-006
194
root  49.0347 36.9496 -5.24172 11.2751 -45.4116 -2.25047
RightUpLeg  -47.9722 -21.9513 16.6974
RightLeg  39.337 -7.8635 -7.35188
RightFoot  -7.30654 -0.369191 8.62213
RightToes  0.000482159 0.542163 -0.142577
Spine  43.1325 0.254705 -8.69156
Spine1  -3.5051 -4.66095 6.64644
HEad  -56.9823 -25.1053 24.6635
LeftShoulder1  10.175 -16.165 -45.0795
LeftArm  -24.3379 5.86206 -21.7634
LeftForeArm  36.4196 -41.2516 -7.45996
LeftHand  -0.25398 0.0180481 5.50724
RightShoulder  7.01273 11.2727 41.2445
RightArm  -1.73217 -3.7326 30.9721
RightForeArm  -5.42318 38.6026 9.27024
RightHand  -4.23211 11.6248 -28.7363
LeftUpLeg  -14.3727 14.2978 -5.85329
LeftLeg  38.235 10.6641 9.26347
LeftFoot  -30.4993 -0.552524 -4.3378
LeftToes  1.06246e-005 4.65855e-005 -8.18502e-006
195
root  48.7051 36.6191 -3.66541 9.98811 -47.5692 -0.776627
RightUpLeg  -47.7002 -25.1058 22.8123
RightLeg  27.1006 -2.68953 -1.70471
RightFoot  -5.13154 -0.724406 12.7964
RightToes  0.000482159 0.542163 -0.142577
Spine  42.7326 -0.453797 -8.92885
Spine1  -4.28407 -5.16321 5.98099
HEad  -57.5593 -24.3088 22.5294
LeftShoulder1  10.095 -16.0601 -44.9608
LeftArm  -25.6373 6.98392 -21.2041
LeftForeArm  37.6688 -49.1583 -10.1104
LeftHand  -0.25398 0.0180481 5.50724
RightShoulder  7.01049 11.3783 40.9137
RightArm  -2.25806 -4.35949 31.7313
RightForeArm  -5.05603 38.996 9.37566
RightHand  -4.05695 11.2715 -28.1633
LeftUpLeg  -13.0268 19.2491 -7.76044
LeftLeg  40.5755 8.84671 8.39745
LeftFoot  -30.4488 -0.845082 -6.14011
LeftToes  1.06246e-005 4.65855e-005 -8.18502e-006
196
root  48.3074 36.1704 -2.09951 7.58842 -48.2654 1.3028
RightUpLeg  -47.432 -25.8054 24.7236
RightLeg  22.2012 1.10733 0.36226
RightFoot  -1.22127 -0.528042 6.25297
RightToes  0.000482159 0.542163 -0.142577
Spine  42.5181 -1.46092 -8.41493
Spine1  -4.63601 -5.95416 5.60175
HEad  -57.7841 -24.0166 19.956
LeftShoulder1  10.0667 -16.0429 -44.8701
LeftArm  -26.953 7.76512 -21.2345
LeftForeArm  39.8759 -54.1264 -12.1993
LeftHand  -0.25398 0.0180481 5.50724
RightShoulder  6.92418 11.4452 40.1687
RightArm  -3.03881 -5.19752 32.1917
RightForeArm  -4.31039 40.2334 9.74331
RightHand  -3.95267 11.0449 -27.8364
LeftUpLeg  -13.541 24.3145 -8.99292
LeftLeg  47.4489 6.09091 7.49616
LeftFoot  -25.5093 -0.920884 -8.71828
LeftToes  1.06246e-005 4.65855e-005 -8.18502e-006
197
root  47.9921 35.5954 -0.67799 5.24504 -48.5849 1.92403
RightUpLeg  -47.2986 -21.0698 21.5284
RightLeg  27.1918 -3.12506 -2.14335
RightFoot  0.349428 0.978681 -9.85482
RightToes  0.000482159 0.542163 -0.142577
Spine  42.9066 -2.29071 -6.40088
Spine1  -4.27835 -6.32481 5.1366
HEad  -57.8965 -24.1388 17.8988
LeftShoulder1  10.1925 -16.1994 -45.0781
LeftArm  -27.8373 8.09135 -21.2049
LeftForeArm  44.4421 -57.1398 -13.4825
LeftHand  -0.25398 0.0180481 5.50724
RightShoulder  6.819 11.4039 39.6217
RightArm  -4.01752 -5.47481 31.8085
RightForeArm  -3.99692 42.341 10.4613
RightHand  -4.03129 11.1437 -28.1977
LeftUpLeg  -16.458 28.1508 -8.24439
LeftLeg  59.2029 3.80151 7.45116
LeftFoot  -13.8777 -0.146561 -9.06243
LeftToes  1.06246e-005 4.65855e-005 -8.18502e-006
198
root  47.7885 34.7042 0.622416 3.9908 -49.6135 -0.0873413
RightUpLeg  -47.5128 -14.9038 18.2575
RightLeg  37.5679 -9.09585 -7.68288
RightFoot  -1.30976 1.79503 -20.261
RightToes  0.000482159 0.542163 -0.142577
Spine  44.0271 -2.83769 -3.18767
Spine1  -3.63568 -5.90765 4.6088
HEad  -58.1298 -23.7783 17.1094
LeftShoulder1  10.3245 -16.3153 -45.4077
LeftArm  -28.3581 8.01563 -20.734
LeftForeArm  49.5658 -59.0545 -14.2155
LeftHand  -0.25398 0.0180481 5.50724
RightShoulder  6.82745 11.395 39.701
RightArm  -5.07148 -3.86311 30.7223
RightForeArm  -3.56459 44.4878 11.2412
RightHand  -4.11301 11.1921 -28.6602
LeftUpLeg  -21.3321 28.8737 -5.32168
LeftLeg  73.4501 1.58847 6.98322
LeftFoot  -2.34655 0.547552 -6.80111
LeftToes  1.06246e-005 4.65855e-005 -8.18502e-006
